<?xml version="1.0" encoding="UTF-8"?>
<svg id="Layer_1" xmlns="http://www.w3.org/2000/svg" version="1.1" viewBox="0 0 994 391">
  <!-- Generator: Adobe Illustrator 29.8.4, SVG Export Plug-In . SVG Version: 2.1.1 Build 6)  -->
  <defs>
    <style>
      .st0 {
        fill: #fff;
      }
    </style>
  </defs>
  <path class="st0" d="M954.89,155.48c21.54,0,39,17.46,39,39s-17.46,39-39,39h-73.87c-21.54,0-39-17.46-39-39s17.46-39,39-39h73.87Z"/>
  <path class="st0" d="M988.89,39h0c0,21.54-17.46,39-39,39h-115.14c-21.54,0-39-17.46-39-39h0C795.75,17.46,813.21,0,834.75,0h115.14c21.54,0,39,17.46,39,39Z"/>
  <path class="st0" d="M988.89,349.81h0c0,21.54-17.46,39-39,39h-115.14c-21.54,0-39-17.46-39-39h0c0-21.54,17.46-39,39-39h115.14c21.54,0,39,17.46,39,39Z"/>
  <path class="st0" d="M744.26,166.23c21.91-3.94,36.76-25.28,28.06-45.78-13.27-31.26-34.82-58.85-62.78-79.79-28.63-21.45-62.51-34.83-97.95-39.06-21.38-2.55-37.66,16.52-36.05,37.99,1.6,21.34,20.52,36.76,41.3,41.9,15.76,3.9,30.67,10.89,43.75,20.69,12.57,9.42,22.98,21.07,30.76,34.22,11.17,18.87,31.33,33.71,52.91,29.83Z"/>
  <path class="st0" d="M744.28,222.62c21.92,3.93,36.78,25.26,28.09,45.76-13.26,31.3-34.83,58.93-62.81,79.9-28.66,21.48-62.57,34.86-98.04,39.08-21.38,2.54-37.66-16.53-36.04-38.01,1.61-21.34,20.54-36.75,41.31-41.89,15.78-3.9,30.71-10.9,43.81-20.71,12.59-9.43,23.01-21.11,30.79-34.27,11.16-18.88,31.31-33.73,52.89-29.86Z"/>
  <path class="st0" d="M482.75,388.81h0c-21.46,0-38.85-17.39-38.85-38.85V38.85c0-21.46,17.39-38.85,38.85-38.85h0c21.46,0,38.85,17.39,38.85,38.85v311.11c0,21.46-17.39,38.85-38.85,38.85Z"/>
  <path class="st0" d="M350.04,390.82h0c-21.46,0-38.85-17.39-38.85-38.85v-178.02c0-21.46,17.39-38.85,38.85-38.85h0c21.46,0,38.85,17.39,38.85,38.85v178.02c0,21.46-17.39,38.85-38.85,38.85Z"/>
  <path class="st0" d="M217.09,310.85h0c-21.46,0-38.85-17.39-38.85-38.85h0c0-21.46,17.39-38.85,38.85-38.85h0c21.46,0,38.85,17.39,38.85,38.85h0c0,21.46-17.39,38.85-38.85,38.85Z"/>
  <path class="st0" d="M348.09,2.09c21.36-2.14,38.8,15.46,38.8,36.92s-17.47,38.62-38.77,41.29c-27.51,3.46-54.5,10.59-80.22,21.24-37.72,15.62-72,38.53-100.87,67.4-28.87,28.87-51.77,63.15-67.4,100.87-10.66,25.73-17.79,52.71-21.24,80.22-2.68,21.3-19.83,38.76-41.29,38.76S-1.97,371.36.18,350.01c3.79-37.73,13.08-74.77,27.64-109.93,19.53-47.15,48.16-90,84.25-126.09,36.09-36.09,78.93-64.72,126.09-84.25,35.16-14.56,72.2-23.86,109.93-27.64Z"/>
</svg>