<svg width="300" height="300" viewBox="0 0 300 300" fill="none" xmlns="http://www.w3.org/2000/svg">
<path d="M298.457 28.6206C298.457 12.0621 285.001 -1.51653 268.525 0.136586C239.421 3.05682 210.845 10.2262 183.722 21.4611C147.346 36.5284 114.294 58.6129 86.4536 86.4536C58.6128 114.294 36.5284 147.346 21.4611 183.722C10.2262 210.845 3.05682 239.421 0.136585 268.525C-1.51653 285.001 12.0621 298.457 28.6206 298.457C45.1791 298.457 58.4094 284.983 60.4739 268.553C63.1407 247.33 68.6403 226.514 76.8603 206.669C88.9141 177.568 106.582 151.127 128.854 128.854C151.127 106.582 177.568 88.9142 206.669 76.8603C226.514 68.6403 247.33 63.1407 268.553 60.4739C284.983 58.4094 298.457 45.1791 298.457 28.6206Z" fill="black"/>
<rect x="300" y="300.008" width="59.9399" height="208.549" rx="29.9699" transform="rotate(180 300 300.008)" fill="black"/>
<rect x="199.337" y="225.703" width="59.9399" height="59.9391" rx="29.9696" transform="rotate(180 199.337 225.703)" fill="black"/>
</svg>
