<svg width="994" height="391" viewBox="0 0 994 391" fill="none" xmlns="http://www.w3.org/2000/svg">
<path d="M954.893 155.48C976.432 155.48 993.893 172.941 993.893 194.48C993.893 216.019 976.432 233.48 954.893 233.48L881.021 233.48C859.482 233.48 842.021 216.019 842.021 194.48C842.021 172.941 859.482 155.48 881.021 155.48L954.893 155.48Z" fill="black"/>
<rect x="988.893" width="78" height="193.14" rx="39" transform="rotate(90 988.893 0)" fill="black"/>
<rect x="988.894" y="310.809" width="78" height="193.14" rx="39" transform="rotate(90 988.894 310.809)" fill="black"/>
<path d="M744.261 166.231C766.175 162.291 781.022 140.947 772.32 120.452C759.046 89.1908 737.496 61.6026 709.537 40.6572C680.903 19.2057 647.024 5.82772 611.588 1.60073C590.205 -0.949967 573.924 18.1207 575.536 39.5948C577.137 60.9371 596.059 76.355 616.835 81.4941C632.592 85.3917 647.501 92.3841 660.585 102.186C673.156 111.604 683.568 123.26 691.349 136.405C702.52 155.276 722.677 170.112 744.261 166.231Z" fill="black"/>
<path d="M744.282 222.621C766.199 226.547 781.06 247.88 772.373 268.381C759.109 299.683 737.548 327.309 709.565 348.281C680.906 369.758 646.991 383.146 611.52 387.366C590.136 389.909 573.861 370.833 575.48 349.359C577.089 328.017 596.017 312.606 616.794 307.474C632.573 303.577 647.502 296.577 660.601 286.76C673.187 277.328 683.608 265.652 691.389 252.486C702.547 233.606 722.696 218.755 744.282 222.621Z" fill="black"/>
<rect x="521.598" y="388.809" width="77.7009" height="388.809" rx="38.8505" transform="rotate(180 521.598 388.809)" fill="black"/>
<rect x="388.894" y="390.819" width="77.7009" height="255.721" rx="38.8505" transform="rotate(180 388.894 390.819)" fill="black"/>
<rect x="255.936" y="310.851" width="77.7009" height="77.7012" rx="38.8505" transform="rotate(180 255.936 310.851)" fill="black"/>
<path d="M348.093 2.09167C369.451 -0.0512023 386.895 17.5506 386.895 39.0155C386.895 60.4806 369.427 77.6313 348.129 80.3075C320.617 83.7646 293.633 90.894 267.907 101.55C230.184 117.175 195.908 140.078 167.035 168.95C138.163 197.822 115.261 232.099 99.635 269.822C88.9793 295.547 81.8499 322.532 78.3928 350.044C75.7166 371.341 58.5659 388.809 37.1008 388.809C15.6359 388.809 -1.9659 371.365 0.177002 350.008C3.96252 312.279 13.2557 275.236 27.8196 240.076C47.3515 192.922 75.9802 150.076 112.071 113.985C148.161 77.8949 191.006 49.2662 238.16 29.7343C273.321 15.1703 310.364 5.87722 348.093 2.09167Z" fill="black"/>
</svg>
